P3 4 4 255 0 0 0 0 0 0 127 0 127 255 0 255 0 127 63 0 127 63 0 0 0 0 0 0 0 0 0 0 127 63 0 127 63 0 0 0 127 0 127 0 0 0 0 0 0 0 0 0 